{"title":"The Third Man-720p MP4 AAC x264 BRRip 1949-CC","uid":7406547,"size":1886253983,"categoryP":"video","categoryS":"hd___movies","magnet":"?xt=urn:btih:b7a46f646ee99bce082ea1d14b04384cd3975a2b&amp;dn=The+Third+Man-720p+MP4+AAC+x264+BRRip+1949-CC&amp;tr=udp%3A%2F%2Ftracker.openbittorrent.com%3A80&amp;tr=udp%3A%2F%2Fopen.demonii.com%3A1337&amp;tr=udp%3A%2F%2Ftracker.coppersurfer.tk%3A6969&amp;tr=udp%3A%2F%2Fexodus.desync.com%3A6969","seeders":6,"leechers":3,"uploader":"Caveman44","files":-1,"time":1341257217,"description":" &lt;a href=&quot;http://www.imdb.com/title/tt0041959/&quot; rel=&quot;nofollow&quot; target=&quot;_NEW&quot;&gt;http://www.imdb.com/title/tt0041959/&lt;/a&gt;\n\nSource: The.Third.Man.1949.BluRay.720p.AC3.x264-CHD Thanks!\n\nSubs: Croatian, Danish, Dutch, English, Farsi-Persian, French, Hungarian, Italian, Spanish and Swedish.\n\nSample and Screens included.\n\nGeneral\nComplete name                    : The Third Man-720p MP4 AAC x264 BRRip 1949-CC.mp4\nFormat                           : MPEG-4\nFormat profile                   : Base Media\nCodec ID                         : isom\nFile size                        : 1.74 GiB\nDuration                         : 1h 45mn\nOverall bit rate                 : 2 362 Kbps\nEncoded date                     : UTC 2012-06-18 19:32:41\n\nVideo\nID                               : 1\nFormat                           : AVC\nFormat/Info                      : Advanced Video Codec\nFormat profile                   : &lt;a class=&quot;__cf_email__&quot; href=&quot;/cdn-cgi/l/email-protection&quot; data-cfemail=&quot;7830111f1038344b5649&quot;&gt;[email&amp;#160;protected]&lt;/a&gt;&lt;script cf-hash='f9e31' type=&quot;text/javascript&quot;&gt;\n/* &lt;![CDATA[ */!function(){try{var t=&quot;currentScript&quot;in document?document.currentScript:function(){for(var t=document.getElementsByTagName(&quot;script&quot;),e=t.length;e--;)if(t[e].getAttribute(&quot;cf-hash&quot;))return t[e]}();if(t&amp;&amp;t.previousSibling){var e,r,n,i,c=t.previousSibling,a=c.getAttribute(&quot;data-cfemail&quot;);if(a){for(e=&quot;&quot;,r=parseInt(a.substr(0,2),16),n=2;a.length-n;n+=2)i=parseInt(a.substr(n,2),16)^r,e+=String.fromCharCode(i);e=document.createTextNode(e),c.parentNode.replaceChild(e,c)}}}catch(u){}}();/* ]]&gt; */&lt;/script&gt;\nFormat settings, CABAC           : Yes\nFormat settings, ReFrames        : 5 frames\nCodec ID                         : avc1\nCodec ID/Info                    : Advanced Video Coding\nDuration                         : 1h 45mn\nBit rate mode                    : Variable\nBit rate                         : 2 214 Kbps\nMaximum bit rate                 : 10.3 Mbps\nWidth                            : 960 pixels\nHeight                           : 720 pixels\nDisplay aspect ratio             : 4:3\nFrame rate mode                  : Variable\nFrame rate                       : 23.976 fps\nMinimum frame rate               : 19.048 fps\nMaximum frame rate               : 24.390 fps\nResolution                       : 24 bits\nColorimetry                      : 4:2:0\nScan type                        : Progressive\nBits/(Pixel*Frame)               : 0.134\nStream size                      : 1.63 GiB (94%)\nWriting library                  : x264 core 112\n\nAudio\nID                               : 2\nFormat                           : AAC\nFormat/Info                      : Advanced Audio Codec\nFormat version                   : Version 4\nFormat profile                   : LC\nFormat settings, SBR             : No\nFormat settings, PS              : Yes\nCodec ID                         : 40\nDuration                         : 1h 45mn\nBit rate mode                    : Variable\nBit rate                         : 144 Kbps\nMaximum bit rate                 : 192 Kbps\nChannel(s)                       : 2 channels\nChannel positions                : Front: L R\nSampling rate                    : 48.0 KHz\nResolution                       : 16 bits\nStream size                      : 108 MiB (6%)\nLanguage                         : English\n\nEnjoy...\n\nRequested by DreamExtractor.\n\nMore coming up.","torrent":{"xt":"urn:btih:b7a46f646ee99bce082ea1d14b04384cd3975a2b","amp;dn":"The+Third+Man-720p+MP4+AAC+x264+BRRip+1949-CC","amp;tr":["udp%3A%2F%2Ftracker.openbittorrent.com%3A80","udp%3A%2F%2Fopen.demonii.com%3A1337","udp%3A%2F%2Ftracker.coppersurfer.tk%3A6969","udp%3A%2F%2Fexodus.desync.com%3A6969"],"infoHash":"b7a46f646ee99bce082ea1d14b04384cd3975a2b","infoHashBuffer":{"type":"Buffer","data":[183,164,111,100,110,233,155,206,8,46,161,209,75,4,56,76,211,151,90,43]},"announce":[],"urlList":[]}}